<svg width="914" height="400" fill="none" xmlns="http://www.w3.org/2000/svg"><path d="M344.712 210.722c0-.136.079-.261.238-.374.158-.113.34-.215.544-.306.226-.091.442-.17.646-.238a6.91 6.91 0 0 0 .51-.17c1.088.136 2.176.249 3.264.34 1.088.091 2.176.136 3.264.136h1.7a50.953 50.953 0 0 0 2.38-.136 35.71 35.71 0 0 0 2.618-.306 13.886 13.886 0 0 0 2.414-.646c.725-.272 1.314-.612 1.768-1.02.453-.408.68-.918.68-1.53a2.57 2.57 0 0 0-.34-1.326 3.188 3.188 0 0 0-.85-1.054 4.535 4.535 0 0 0-1.156-.782 3.507 3.507 0 0 0-.51-.238c.181.091.351.181.51.272.408.227.77.51 1.088.85.34.317.612.68.816 1.088.204.385.306.827.306 1.326 0 .544-.204 1.009-.612 1.394-.386.363-.896.669-1.53.918-.612.249-1.304.442-2.074.578-.748.136-1.496.238-2.244.306-.748.068-1.44.113-2.074.136h-1.496c-1.156 0-2.324-.034-3.502-.102a184.364 184.364 0 0 1-3.468-.306 7.776 7.776 0 0 1 1.224-.238c.43-.068.861-.102 1.292-.102.725 0 1.439.011 2.142.034h2.108c.838 0 1.666-.011 2.482-.034a24.969 24.969 0 0 0 2.516-.272l.102.408c.34-.068.77-.17 1.292-.306.521-.159 1.02-.351 1.496-.578a4.25 4.25 0 0 0 1.258-.85c.362-.34.544-.737.544-1.19 0-.657-.238-1.235-.714-1.734-.476-.499-1.088-.941-1.836-1.326a13.232 13.232 0 0 0-2.482-1.054 46.422 46.422 0 0 0-2.754-.782 96.305 96.305 0 0 0-2.516-.612 20.933 20.933 0 0 1-1.904-.51v.204c.476.181 1.099.374 1.87.578.77.181 1.598.385 2.482.612a41.04 41.04 0 0 1 2.72.782c.906.272 1.722.601 2.448.986.748.385 1.348.827 1.802 1.326.476.499.714 1.065.714 1.7 0 .363-.17.68-.51.952-.34.272-.748.51-1.224.714a9.988 9.988 0 0 1-1.394.442c-.476.113-.839.193-1.088.238.294-.068.668-.159 1.122-.272a8.863 8.863 0 0 0 1.36-.51 4.793 4.793 0 0 0 1.156-.714c.317-.295.476-.635.476-1.02 0-.635-.25-1.167-.748-1.598-.499-.431-1.156-.816-1.972-1.156a21.204 21.204 0 0 0-2.788-.918c-1.043-.272-2.12-.567-3.23-.884a37.648 37.648 0 0 1-3.196-1.088 11.751 11.751 0 0 1-2.788-1.53 7.48 7.48 0 0 1-1.972-2.176c-.499-.839-.748-1.847-.748-3.026 0-1.156.272-2.131.816-2.924a6.597 6.597 0 0 1 2.142-1.972 9.722 9.722 0 0 1 2.89-1.122 14.205 14.205 0 0 1 3.026-.34c1.428 0 2.822.204 4.182.612 1.382.408 2.686.975 3.91 1.7-.136.045-.216.113-.238.204a2.794 2.794 0 0 0-.068.238.42.42 0 0 1-.068.238c-.023.068-.091.102-.204.102-.091 0-.272-.034-.544-.102-.25-.091-.522-.181-.816-.272a21.064 21.064 0 0 0-.85-.306 5.092 5.092 0 0 1-.544-.204l-.102.306c.204.091.464.227.782.408.34.159.657.363.952.612.317.227.578.476.782.748.226.272.34.544.34.816 0 .295-.136.442-.408.442-.34 0-.748-.091-1.224-.272a49.23 49.23 0 0 0-1.53-.578 17.316 17.316 0 0 0-1.836-.612 7.037 7.037 0 0 0-1.938-.272c-.431 0-.941.045-1.53.136a6.235 6.235 0 0 0-1.666.442 3.581 3.581 0 0 0-1.326.884c-.363.363-.544.827-.544 1.394 0 .521.238.963.714 1.326.498.363 1.144.691 1.938.986.816.295 1.734.578 2.754.85s2.062.578 3.128.918c1.088.317 2.142.691 3.162 1.122 1.02.431 1.926.952 2.72 1.564a7.065 7.065 0 0 1 1.938 2.176c.498.839.748 1.825.748 2.958 0 1.111-.227 2.051-.68 2.822a6.127 6.127 0 0 1-1.802 1.938 9.78 9.78 0 0 1-2.55 1.19c-.952.272-1.938.487-2.958.646-.998.136-1.995.215-2.992.238-.975.045-1.859.068-2.652.068h-3.4c-.204 0-.488-.011-.85-.034-.34 0-.68-.023-1.02-.068a3.22 3.22 0 0 1-.884-.17c-.25-.091-.374-.204-.374-.34l.034-.17 2.754.136c.906.023 1.824.034 2.754.034h2.584c.77-.023 1.541-.068 2.312-.136l-1.156.068h-2.754c-2.131 0-4.228-.068-6.29-.204.045-.181.068-.306.068-.374a.608.608 0 0 0-.068-.272.899.899 0 0 0-.204.034h-.272c-.25 0-.533-.011-.85-.034a5.983 5.983 0 0 1-.884-.136 2.943 2.943 0 0 1-.714-.272c-.182-.136-.272-.295-.272-.476Zm20.876-.884c-.386.34-.794.623-1.224.85-.386.204-.782.397-1.19.578.408-.136.804-.295 1.19-.476.43-.181.838-.499 1.224-.952Zm26.93-14.484c-.498.952-1.088 2.233-1.768 3.842a200.239 200.239 0 0 1-2.244 5.032 201.496 201.496 0 0 0 1.904-3.91 691.052 691.052 0 0 1 2.006-4.046 22.816 22.816 0 0 1-.816 2.754 22.865 22.865 0 0 1-1.02 2.448 75.672 75.672 0 0 1-1.156 2.414 69.928 69.928 0 0 0-1.224 2.584l-.578.34a95.43 95.43 0 0 1-1.224 2.822 15.281 15.281 0 0 1-1.496 2.652 11.91 11.91 0 0 1-2.006 2.278c-.77.68-1.677 1.224-2.72 1.632-.34-.204-.691-.431-1.054-.68a6.591 6.591 0 0 0-1.088-.612c0-.023-.011-.045-.034-.068v-.102c0-.181.012-.476.034-.884.046-.385.091-.782.136-1.19.046-.408.08-.771.102-1.088.046-.34.068-.544.068-.612l-.204.204c0 .159-.022.397-.068.714a7.864 7.864 0 0 1-.136.952c-.045.34-.09.669-.136.986-.022.34-.034.612-.034.816v.17l2.618 1.598c.658-.068 1.349-.453 2.074-1.156a16.751 16.751 0 0 0 2.142-2.482 30.758 30.758 0 0 0 1.836-2.89c.476-.839.85-1.53 1.122-2.074-.317.68-.702 1.462-1.156 2.346a23.762 23.762 0 0 1-1.7 2.822 12.785 12.785 0 0 1-2.006 2.346c-.725.68-1.484 1.088-2.278 1.224l-2.686-1.564a.681.681 0 0 1-.068-.306c0-.363.057-.861.17-1.496.114-.635.17-1.167.17-1.598v-.272a5.852 5.852 0 0 0-.51.646c-.226.317-.487.646-.782.986a7.495 7.495 0 0 1-.85.85c-.272.249-.498.374-.68.374a9.675 9.675 0 0 1-1.088-.816c-.34-.272-.691-.544-1.054-.816a10.92 10.92 0 0 0-.714-2.108 33.782 33.782 0 0 0-.952-2.074 43.49 43.49 0 0 1-.952-2.108 9.218 9.218 0 0 1-.612-2.176 19.15 19.15 0 0 0-.85-3.264 44.614 44.614 0 0 1-.952-3.264l.136.068a.884.884 0 0 0 .306-.204c.114-.091.216-.136.306-.136.136 0 .261.125.374.374.114.227.204.499.272.816.091.295.159.589.204.884l.136.544.408-.102c-.045-.499-.09-.986-.136-1.462a16.638 16.638 0 0 1-.068-1.496v-.34c0-.159.012-.329.034-.51.046-.181.091-.34.136-.476.068-.136.159-.204.272-.204.272 0 .578.374.918 1.122.34.748.692 1.666 1.054 2.754a74.009 74.009 0 0 1 1.054 3.366c.363 1.179.692 2.21.986 3.094.068.227.159.499.272.816.136.295.261.589.374.884.114.295.216.567.306.816.114.227.182.385.204.476.068-.34.182-.805.34-1.394.159-.612.318-1.247.476-1.904l.51-1.904c.182-.612.329-1.077.442-1.394.182-.023.352-.034.51-.034.159-.023.306-.034.442-.034a4.1 4.1 0 0 1 1.224.17c.363.091.828.249 1.394.476.159.34.284.771.374 1.292.091.521.159 1.077.204 1.666.068.589.102 1.19.102 1.802.023.612.034 1.179.034 1.7v1.36a32.203 32.203 0 0 0 2.414-4.148 193.092 193.092 0 0 0 2.074-4.352c.068-.159.182-.431.34-.816.159-.385.34-.816.544-1.292.227-.476.454-.975.68-1.496.25-.544.488-1.031.714-1.462.227-.431.431-.782.612-1.054.204-.295.363-.442.476-.442l.204.102a80.98 80.98 0 0 1-1.088 2.414c-.34.771-.691 1.53-1.054 2.278-.34.748-.68 1.519-1.02 2.312-.34.771-.68 1.575-1.02 2.414l4.284-9.214.34.306.17-.102a9.22 9.22 0 0 1 .238-.68c.136-.295.284-.589.442-.884a7.95 7.95 0 0 1 .544-.782c.204-.227.408-.34.612-.34.091 0 .17.045.238.136a.761.761 0 0 1 .136.34c.046.136.08.272.102.408.023.113.034.204.034.272l-.102 1.02Zm-16.354 13.838c.114-.363.238-.771.374-1.224.159-.476.318-.975.476-1.496.182-.521.34-1.009.476-1.462.159-.476.284-.861.374-1.156.091-.317.136-.499.136-.544v-.034l-.374.272h-.136c-.113.476-.249.986-.408 1.53-.158.521-.317 1.054-.476 1.598a44.88 44.88 0 0 0-.442 1.632 9.11 9.11 0 0 0-.204 1.462c.023-.068.091-.261.204-.578Zm3.944 6.562c.635-.091 1.281-.442 1.938-1.054a15.166 15.166 0 0 0 1.904-2.074 23.625 23.625 0 0 0 1.564-2.38c.476-.816.839-1.485 1.088-2.006l.578-1.258c-.476.952-.963 1.87-1.462 2.754a26.827 26.827 0 0 1-1.666 2.584 13.693 13.693 0 0 1-1.734 1.972c-.589.544-1.167.907-1.734 1.088l-.612.272-1.394-.952c0-.136.012-.351.034-.646.046-.272.08-.567.102-.884.046-.317.08-.623.102-.918.046-.295.068-.544.068-.748a34.49 34.49 0 0 1-.102.748c-.045.295-.102.589-.17.884-.045.317-.09.612-.136.884a8.442 8.442 0 0 0-.034.612c0 .113.057.227.17.34.136.113.284.215.442.306.182.113.363.215.544.306.204.091.363.17.476.238l.034-.068Zm5.304-10.71a155.177 155.177 0 0 1-1.734 3.434 14.84 14.84 0 0 1-2.176 3.128v.102a15.477 15.477 0 0 0 2.21-3.162 70.337 70.337 0 0 0 1.7-3.502Zm-5.712 8.126.238-1.836-.578 1.768.34.068Zm-4.794-2.21c-.068 0-.158.068-.272.204-.09.113-.192.249-.306.408a3.095 3.095 0 0 0-.306.442c-.09.136-.147.227-.17.272l.034.034c.046-.023.125-.091.238-.204l.34-.408c.114-.159.216-.306.306-.442.091-.136.159-.227.204-.272l-.068-.034Zm6.766 2.584a2.202 2.202 0 0 0-1.156-.306l-.476.034c.25.045.499.102.748.17.25.068.499.102.748.102h.136Zm-2.89-3.264v.306-.102a.633.633 0 0 0 .034-.204h-.034Zm.034.612c0-.045-.011-.079-.034-.102a.27.27 0 0 0 .034.102Zm8.874-3.366Zm17.897-3.434c-.612 0-1.077-.011-1.394-.034a10.54 10.54 0 0 0-.816-.034c-.68 0-1.281.034-1.802.102-.521.068-.963.204-1.326.408a1.929 1.929 0 0 0-.816.884c-.181.385-.272.895-.272 1.53 0 .929.102 1.621.306 2.074.227.431.533.748.918.952.408.181.895.295 1.462.34.567.045 1.201.147 1.904.306.408.045.816.079 1.224.102h3.672a56.756 56.756 0 0 0-3.4-.102 17.346 17.346 0 0 1-3.026-.306c-.884-.181-1.609-.499-2.176-.952-.544-.453-.816-1.145-.816-2.074 0-.748.091-1.315.272-1.7.204-.408.465-.703.782-.884.34-.204.737-.317 1.19-.34.453-.045.941-.068 1.462-.068.635 0 1.281.034 1.938.102-.521.159-1.054.283-1.598.374-.521.068-1.009.147-1.462.238-.453.068-.85.17-1.19.306-.317.113-.533.283-.646.51v1.53l-.272.136c.091.567.17.997.238 1.292.091.272.317.487.68.646.363.136.941.249 1.734.34.816.091 1.995.238 3.536.442h2.448c.431 0 .68-.011.748-.034a.608.608 0 0 1 .17-.068l-.306-1.836a14.444 14.444 0 0 0-.17-1.224 14.024 14.024 0 0 0-.272-1.156c-.023.068-.091.102-.204.102.113.385.204.793.272 1.224.091.431.159.839.204 1.224.068.385.113.714.136.986.045.272.091.431.136.476l-.204.068a.467.467 0 0 1-.204.034h-.204c-.159 0-.34-.011-.544-.034a3.73 3.73 0 0 0-.782-.068h-1.122c-.884 0-1.7-.045-2.448-.136a14.961 14.961 0 0 1-1.836-.34c.521.113 1.156.204 1.904.272.793.091 1.53.136 2.21.136h.918c.34-.023.703-.034 1.088-.034h1.122a.326.326 0 0 0-.238-.102h-.068a28.262 28.262 0 0 0-.612-4.488c-.317-1.428-.827-2.675-1.53-3.74a7.728 7.728 0 0 0-2.754-2.584c-1.133-.657-2.55-.986-4.25-.986-.476 0-.952.034-1.428.102-.476.068-.963.159-1.462.272.045-.045.068-.091.068-.136a.423.423 0 0 0-.136-.306.542.542 0 0 1-.136-.34c0-.136.136-.261.408-.374.295-.136.907-.261 1.836-.374a.434.434 0 0 1-.102-.204v-.204c-1.224 0-2.176-.023-2.856-.068-.68-.068-1.02-.238-1.02-.51 0-.113.136-.272.408-.476.295-.204.703-.397 1.224-.578a10.471 10.471 0 0 1 1.87-.51 11.958 11.958 0 0 1 2.482-.238c1.745 0 3.241.272 4.488.816 1.247.521 2.289 1.224 3.128 2.108a10.39 10.39 0 0 1 2.074 2.958 19.751 19.751 0 0 1 1.292 3.366c.34 1.111.589 2.199.748 3.264.159 1.043.306 1.949.442 2.72v.408c.023.136.034.295.034.476 0 .657-.125 1.235-.374 1.734a3.128 3.128 0 0 1-.986 1.19 3.89 3.89 0 0 1-1.462.748 5.567 5.567 0 0 1-1.768.272c-.499 0-1.145-.011-1.938-.034a18.23 18.23 0 0 1-2.278-.204 14.008 14.008 0 0 0-1.564-.272 11.886 11.886 0 0 1-1.734-.272 9.776 9.776 0 0 1-1.734-.578 4.622 4.622 0 0 1-1.496-1.122c-.431-.521-.782-1.19-1.054-2.006-.249-.816-.374-1.847-.374-3.094 0-1.179.272-2.119.816-2.822.544-.725 1.19-1.281 1.938-1.666a7.157 7.157 0 0 1 2.346-.782c.793-.136 1.439-.204 1.938-.204.635 0 1.054.045 1.258.136.204.091.306.181.306.272a.373.373 0 0 1-.034.17c-.567 0-1.292.023-2.176.068-.884.045-1.745.193-2.584.442a5.605 5.605 0 0 0-2.108 1.156c-.589.499-.884 1.213-.884 2.142.204-.839.544-1.496 1.02-1.972a4.546 4.546 0 0 1 1.7-1.088 6.5 6.5 0 0 1 1.938-.442c.68-.068 1.292-.102 1.836-.102h1.156c-.091.091-.136.181-.136.272 0 .091.045.17.136.238h1.326c.363.068.623.193.782.374.159.159.238.306.238.442 0 .204-.102.385-.306.544-.204.159-.544.317-1.02.476Zm-5.712 8.228a11.92 11.92 0 0 0 1.938.578 15.7 15.7 0 0 0 2.006.272c.657.068 1.269.102 1.836.102a9.499 9.499 0 0 1-1.36-.238c-.476-.113-.895-.215-1.258-.306a6.777 6.777 0 0 0-1.156-.17 28.054 28.054 0 0 1-1.156-.17 8.376 8.376 0 0 1-1.19-.306 5.513 5.513 0 0 1-1.224-.68c.431.385.952.691 1.564.918Zm.34-3.57.204.204c.136.136.317.238.544.306a6.597 6.597 0 0 0-.51-.17c-.249-.091-.374-.227-.374-.408l.136.068Zm.85.51h-.102.102Zm18.145 13.6a203.069 203.069 0 0 0 .136-7.684c0-.589-.011-1.179-.034-1.768a36.62 36.62 0 0 0-.102-1.666v3.74c0 1.247-.022 2.482-.068 3.706a38.683 38.683 0 0 1-.238 3.672 5.734 5.734 0 0 1-.306-.646 3.058 3.058 0 0 1-.204-.68c.046-.612.068-1.179.068-1.7.023-.499.034-1.054.034-1.666l.408-.204a15.318 15.318 0 0 1-.136-1.462 30.927 30.927 0 0 1-.034-1.428v-1.53c.023-.476.034-.975.034-1.496 0-.635-.022-1.258-.068-1.87a13.379 13.379 0 0 0-.204-1.904h-.102c.046.952.08 1.893.102 2.822.046.929.068 1.859.068 2.788 0 .408-.011.816-.034 1.224l-.034.884a188.526 188.526 0 0 0-.238-6.392c-.09-2.221-.249-4.499-.476-6.834l.136-2.822a8.518 8.518 0 0 0-.782-.034h-.782l-.102-.782c0-.113.08-.215.238-.306.159-.091.476-.136.952-.136h.34v-.408c-.748-.091-1.337-.249-1.768-.476-.408-.227-.612-.465-.612-.714 0-.227.204-.419.612-.578.408-.181.93-.317 1.564-.408a19.355 19.355 0 0 1 2.142-.238 38.544 38.544 0 0 1 2.244-.068c.794 0 1.644.023 2.55.068.93.045 1.859.159 2.788.34.93.181 1.825.465 2.686.85a7.478 7.478 0 0 1 2.38 1.564c.703.657 1.281 1.496 1.734 2.516.476.997.782 2.221.918 3.672 0 1.224-.272 2.233-.816 3.026a6.493 6.493 0 0 1-1.904 1.87 7.938 7.938 0 0 1-2.346 1.02c-.793.204-1.45.34-1.972.408-.521.113-1.122.249-1.802.408-.68.136-1.258.204-1.734.204-.521 0-.827-.057-.918-.17a.69.69 0 0 1-.136-.442 46.33 46.33 0 0 0 3.06-.238c1.02-.136 2.04-.363 3.06-.68-1.02.249-2.04.442-3.06.578a46.33 46.33 0 0 1-3.06.238c0-.136-.011-.272-.034-.408-.022-.159-.09-.238-.204-.238-.226 0-.408.363-.544 1.088a30.564 30.564 0 0 0-.272 2.584c-.045 1.02-.079 2.063-.102 3.128v2.652c0 .317.012.646.034.986.046.363.068.669.068.918 0 .227-.034.419-.102.578-.068.159-.26.238-.578.238v-4.284a73.241 73.241 0 0 0-.102 2.142v2.142h-.612v.272c0 .204.034.351.102.442-.249.431-.532.646-.85.646-.249 0-.442-.068-.578-.204a8.673 8.673 0 0 0-.51-.544l.102-.306Zm3.298-14.178h.476c.794 0 1.7-.045 2.72-.136a16.41 16.41 0 0 0 2.924-.51c.907-.249 1.666-.601 2.278-1.054.635-.453.952-1.043.952-1.768v-.272c0-.227-.022-.476-.068-.748a1.693 1.693 0 0 0-.272-.782c.023.113.08.34.17.68.091.34.136.623.136.85 0 .703-.249 1.281-.748 1.734-.476.431-1.088.782-1.836 1.054a12.19 12.19 0 0 1-2.414.544c-.861.091-1.688.136-2.482.136h-.68c-.226 0-.453-.011-.68-.034.318-.249.726-.419 1.224-.51a17.681 17.681 0 0 1 1.632-.272 335.89 335.89 0 0 0 1.666-.204c.544-.068 1.009-.181 1.394-.34l.204.408c.794-.385 1.349-.759 1.666-1.122.34-.385.51-.907.51-1.564 0-1.043-.294-1.961-.884-2.754-.566-.793-1.337-1.326-2.312-1.598l-.102.204c.839.317 1.564.839 2.176 1.564.612.725.918 1.598.918 2.618 0 .544-.124.975-.374 1.292-.226.272-.589.521-1.088.748.408-.181.714-.408.918-.68.25-.317.42-.669.51-1.054 0-.952-.226-1.757-.68-2.414-.453-.657-1.088-1.179-1.904-1.564-.816-.408-1.802-.691-2.958-.85-1.133-.181-2.391-.272-3.774-.272.182.975.284 2.04.306 3.196a53.12 53.12 0 0 0 .238 3.332l.238 2.142Zm-3.434-5.202c.046-.045.091-.238.136-.578.046-.34.08-.703.102-1.088.046-.408.08-.782.102-1.122.046-.363.091-.578.136-.646l-.442-.034-.034 3.468Zm10.37 3.434.17-.068-.17.068Zm39.809 5.032c-.181-.34-.499-.68-.952-1.02a10.647 10.647 0 0 0-1.632-1.054 28.577 28.577 0 0 0-2.04-.986c-.725-.317-1.439-.623-2.142-.918-.703-.317-1.36-.612-1.972-.884a10.39 10.39 0 0 1-1.122-.544c.657.385 1.349.737 2.074 1.054.839.385 1.677.782 2.516 1.19.861.408 1.689.839 2.482 1.292.793.453 1.519.975 2.176 1.564-.657-.181-1.485-.476-2.482-.884a88.023 88.023 0 0 1-3.06-1.394 182.246 182.246 0 0 1-2.992-1.564 35.493 35.493 0 0 1-2.312-1.36l.238-.306a21.204 21.204 0 0 1-1.938-1.496c-.657-.567-1.167-1.19-1.53-1.87a16.877 16.877 0 0 0-.442 3.06 60.59 60.59 0 0 0-.068 2.788c0 .317.079.623.238.918.159.272.238.533.238.782 0 .34-.159.544-.476.612a7.144 7.144 0 0 1-.408-1.292 12.56 12.56 0 0 1-.204-1.292c0 .453.023.895.068 1.326.068.453.181.907.34 1.36l-.51.204.306.408a1.793 1.793 0 0 1-.306.714c-.136.204-.351.306-.646.306-.363 0-.657-.193-.884-.578a6.983 6.983 0 0 1-.51-1.428 14.598 14.598 0 0 1-.238-1.7 38.633 38.633 0 0 1-.034-1.462v-2.278c.023-.748.057-1.507.102-2.278a17.915 17.915 0 0 0-.204 2.21v2.244c0 .793.045 1.609.136 2.448.091.839.227 1.643.408 2.414a2.932 2.932 0 0 1-.68-.918 8.204 8.204 0 0 1-.34-1.054 20.003 20.003 0 0 1-.17-1.156l-.068-1.122.408-.102a5.326 5.326 0 0 1-.17-1.02 17.185 17.185 0 0 1-.034-1.088c0-.793.057-1.564.17-2.312.113-.771.17-1.553.17-2.346v-.408l-.034-.85h-.204a77.662 77.662 0 0 1-.204 3.264 79.114 79.114 0 0 0-.136 3.298 6.41 6.41 0 0 1-.034-.646v-.646c0-1.655.079-3.275.238-4.862.181-1.609.363-3.23.544-4.862.045-.521.181-.997.408-1.428.227-.453.408-.918.544-1.394a.773.773 0 0 0 .34.136c.136 0 .261.011.374.034.113 0 .215.034.306.102.091.068.136.181.136.34 0 .091-.011.181-.034.272l-.068.272.306.102c.159-.249.363-.487.612-.714.249-.227.533-.34.85-.34.249 0 .431.102.544.306.113.204.17.419.17.646 0 .136-.023.419-.068.85-.023.431-.068.929-.136 1.496a77.493 77.493 0 0 1-.17 1.836c-.068.635-.136 1.235-.204 1.802a48.481 48.481 0 0 1-.136 1.462 9.16 9.16 0 0 0-.068.714l.816-1.836a3.958 3.958 0 0 1-.204.51l-.136.408a2.455 2.455 0 0 1-.204.442c-.068.159-.17.363-.306.612v.476l1.122-2.55h1.054a8.983 8.983 0 0 0 1.088-.136l.34-.068h-1.19a8.364 8.364 0 0 1-.782-.102c.907 0 1.802-.011 2.686-.034a55.569 55.569 0 0 1 2.754-.068c.816 0 1.621-.023 2.414-.068.816-.045 1.541-.204 2.176-.476a3.646 3.646 0 0 0 1.598-1.258c.408-.567.612-1.371.612-2.414 0-1.065-.136-1.927-.408-2.584-.272-.657-.669-1.167-1.19-1.53-.499-.385-1.133-.635-1.904-.748a15.16 15.16 0 0 0-2.618-.204c-1.995 0-4.001.091-6.018.272a36.612 36.612 0 0 0-5.916 1.02 6.503 6.503 0 0 1-.102-.476.824.824 0 0 0-.17-.408c0-.136.125-.261.374-.374a4.18 4.18 0 0 1 .85-.272c.317-.068.612-.125.884-.17.295-.045.487-.079.578-.102v-.408c-.159.023-.431.045-.816.068-.385.023-.805.034-1.258.034a13.18 13.18 0 0 1-1.7-.102c-.521-.091-.782-.261-.782-.51 0-.272.295-.533.884-.782.612-.249 1.383-.476 2.312-.68a32.1 32.1 0 0 1 3.06-.578c1.111-.159 2.176-.295 3.196-.408a38.51 38.51 0 0 1 2.754-.272c.816-.068 1.383-.102 1.7-.102 1.632 0 3.105.17 4.42.51 1.315.317 2.425.85 3.332 1.598.929.748 1.632 1.734 2.108 2.958.499 1.201.748 2.686.748 4.454 0 1.473-.283 2.731-.85 3.774a7.168 7.168 0 0 1-2.21 2.516c-.929.635-1.995 1.111-3.196 1.428a15.625 15.625 0 0 1-3.74.442c-.363 0-.725-.011-1.088-.034-.34-.023-.691-.045-1.054-.068.249.159.657.374 1.224.646.589.272 1.235.578 1.938.918.725.34 1.473.703 2.244 1.088a26.85 26.85 0 0 1 2.142 1.088c.635.34 1.156.669 1.564.986.408.295.612.533.612.714l-.17.204a17.688 17.688 0 0 0-2.312-1.428 40.502 40.502 0 0 0-2.448-1.156 80.367 80.367 0 0 0-2.482-1.054 23.366 23.366 0 0 1-2.38-1.19c.771.453 1.541.85 2.312 1.19l2.414 1.088c.816.363 1.609.748 2.38 1.156.793.385 1.553.85 2.278 1.394l-.442.408c.159.113.34.272.544.476.227.181.431.385.612.612.204.227.374.465.51.714.136.227.204.442.204.646 0 .295-.136.442-.408.442-.272 0-.567-.079-.884-.238a8.21 8.21 0 0 0-.85-.374Zm-7.412-12.172c-.453 0-.929.011-1.428.034h-1.462c.567.023 1.156.057 1.768.102a49.8 49.8 0 0 0 1.87.034c.793 0 1.564-.045 2.312-.136.771-.113 1.451-.329 2.04-.646a3.822 3.822 0 0 0 1.394-1.36c.363-.589.544-1.36.544-2.312 0-.317-.023-.623-.068-.918a15.61 15.61 0 0 0-.17-.918h-.204c.136.544.204 1.099.204 1.666 0 1.02-.181 1.825-.544 2.414a3.673 3.673 0 0 1-1.462 1.36c-.612.295-1.337.487-2.176.578-.816.068-1.689.102-2.618.102Zm-6.018.748c.907.045 1.825.079 2.754.102h2.924c.589 0 1.179-.011 1.768-.034a13.36 13.36 0 0 0 1.7-.238 4.204 4.204 0 0 1-.748.068h-1.7c-.385-.023-.805-.045-1.258-.068a28.222 28.222 0 0 0-1.428-.034 31.74 31.74 0 0 0-2.89 0 3.984 3.984 0 0 0-1.122.204Zm-1.292 2.618c.453.589.907 1.145 1.36 1.666.476.499 1.009.975 1.598 1.428a14.67 14.67 0 0 1-1.666-1.394 7.338 7.338 0 0 1-1.292-1.7Zm5.032-.272c.453.045.907.079 1.36.102.431.023.839.045 1.224.068a13.973 13.973 0 0 1-.952-.102 5.892 5.892 0 0 0-1.088-.102h-.272c-.091 0-.181.011-.272.034Zm-3.842-2.346a3.28 3.28 0 0 1-.204.408l-.306.68a18.34 18.34 0 0 1-.272.646c-.091.204-.136.34-.136.408l.068-.068.85-1.972v-.102Zm3.536 2.992h-.102c.317.249.68.487 1.088.714l-.986-.714Zm-4.182-.578c.045.113.113.249.204.408.113.136.249.283.408.442a3.118 3.118 0 0 1-.34-.476 2.91 2.91 0 0 1-.204-.51l-.068.136Zm4.012 3.434c.068.045.125.079.17.102l-.17-.102Zm27.628 7.242c-.861.295-1.518.453-1.972.476-.453.045-.85.079-1.19.102-1.269 0-2.414-.238-3.434-.714a7.974 7.974 0 0 1-2.618-1.938 9.023 9.023 0 0 1-1.7-2.856 10.72 10.72 0 0 1-.578-3.536c0-.725.068-1.473.204-2.244.136-.793.34-1.564.612-2.312a9.924 9.924 0 0 1 1.054-2.142 8.456 8.456 0 0 1 1.462-1.768 6.74 6.74 0 0 0-1.496 1.7c-.43.657-.793 1.371-1.088 2.142-.294.748-.51 1.53-.646 2.346a13.673 13.673 0 0 0-.204 2.312c0 .952.148 1.972.442 3.06a9.77 9.77 0 0 0 1.496 2.992c.68.907 1.553 1.666 2.618 2.278 1.088.612 2.403.918 3.944.918a9.14 9.14 0 0 0 2.278-.306 5.139 5.139 0 0 1-2.89.85 7.304 7.304 0 0 1-2.448-.408 7.765 7.765 0 0 1-2.108-1.088 9.068 9.068 0 0 1-1.734-1.632 10.905 10.905 0 0 1-1.326-2.04l.306-.272a10.647 10.647 0 0 1-.85-2.312 11.657 11.657 0 0 1-.238-2.346c0-1.156.159-2.267.476-3.332.34-1.065.782-2.074 1.326-3.026l.816-1.122c.136-.249.329-.499.578-.748a9.49 9.49 0 0 1 .884-.714 6.73 6.73 0 0 1 .986-.646 24.63 24.63 0 0 1 1.02-.544 28.78 28.78 0 0 1 2.448-1.088c.816-.34 1.768-.589 2.856-.748l-.136-.102c-2.085.204-3.853.714-5.304 1.53-1.45.793-2.629 1.768-3.536 2.924a11.317 11.317 0 0 0-1.972 3.808 13.914 13.914 0 0 0-.612 4.012c0 .703.057 1.417.17 2.142.136.703.329 1.405.578 2.108a11.125 11.125 0 0 1-.85-4.318c0-1.496.25-2.981.748-4.454.499-1.473 1.281-2.833 2.346-4.08 1.36-1.247 2.845-2.199 4.454-2.856 1.61-.68 3.162-1.02 4.658-1.02.476 0 .964.079 1.462.238.499.159.952.408 1.36.748.408.317.737.737.986 1.258.272.521.408 1.156.408 1.904 0 .612-.147 1.36-.442 2.244a9.952 9.952 0 0 1-1.326 2.584 8.218 8.218 0 0 1-2.142 2.108c-.861.567-1.858.85-2.992.85h-1.122a24.112 24.112 0 0 1-2.312-.612 15.34 15.34 0 0 0-1.938-.578 6.09 6.09 0 0 0-.17 1.054v.952c0 .657.068 1.303.204 1.938.159.612.397 1.179.714 1.7.318.521.714.963 1.19 1.326.499.34 1.1.555 1.802.646.431.091.805.147 1.122.17.318 0 .578.011.782.034.227 0 .386.034.476.102.114.045.17.147.17.306a3.625 3.625 0 0 1-.714.136 7.063 7.063 0 0 1-.714.034c-.793 0-1.507-.125-2.142-.374a7.931 7.931 0 0 1-1.632-.918 4.513 4.513 0 0 0 1.87 1.122c.726.204 1.44.306 2.142.306.386 0 .782-.034 1.19-.102a1.449 1.449 0 0 0-.068.238c0 .136.057.227.17.272.091-.023.25-.079.476-.17.227-.113.454-.215.68-.306.25-.113.488-.204.714-.272.227-.091.386-.136.476-.136.114 0 .216.023.306.068.091.023.136.147.136.374s-.079.499-.238.816a3.698 3.698 0 0 1-.714.952Zm-4.692-13.464.748.136c.25.045.476.068.68.068.227 0 .488-.068.782-.204a3.97 3.97 0 0 0 .918-.646c.318-.272.59-.612.816-1.02.25-.408.431-.873.544-1.394l.068-.204c-.317 0-.793.079-1.428.238-.634.159-1.292.374-1.972.646a10.53 10.53 0 0 0-1.904.918c-.589.34-.997.714-1.224 1.122.34.068.669.136.986.204.34.045.669.091.986.136Zm-1.564 2.516c.046-.045.068-.113.068-.204a.916.916 0 0 0 .034-.204l-1.598-.578-.17.476 1.666.51Zm-.952 7.718-.476-.544a3.118 3.118 0 0 1-.34-.476c.204.385.476.725.816 1.02Zm25.577-6.29c-.612 0-1.077-.011-1.394-.034a10.54 10.54 0 0 0-.816-.034c-.68 0-1.281.034-1.802.102-.522.068-.964.204-1.326.408a1.929 1.929 0 0 0-.816.884c-.182.385-.272.895-.272 1.53 0 .929.102 1.621.306 2.074.226.431.532.748.918.952.408.181.895.295 1.462.34.566.045 1.201.147 1.904.306.408.045.816.079 1.224.102h3.672a56.78 56.78 0 0 0-3.4-.102 17.336 17.336 0 0 1-3.026-.306c-.884-.181-1.61-.499-2.176-.952-.544-.453-.816-1.145-.816-2.074 0-.748.09-1.315.272-1.7.204-.408.464-.703.782-.884.34-.204.736-.317 1.19-.34.453-.045.94-.068 1.462-.068.634 0 1.28.034 1.938.102-.522.159-1.054.283-1.598.374a21.63 21.63 0 0 0-1.462.238 5.34 5.34 0 0 0-1.19.306c-.318.113-.533.283-.646.51v1.53l-.272.136c.09.567.17.997.238 1.292.09.272.317.487.68.646.362.136.94.249 1.734.34.816.091 1.994.238 3.536.442h2.448c.43 0 .68-.011.748-.034a.596.596 0 0 1 .17-.068l-.306-1.836a14.862 14.862 0 0 0-.17-1.224 14.024 14.024 0 0 0-.272-1.156c-.023.068-.091.102-.204.102.113.385.204.793.272 1.224.09.431.158.839.204 1.224.068.385.113.714.136.986.045.272.09.431.136.476l-.204.068a.473.473 0 0 1-.204.034h-.204c-.159 0-.34-.011-.544-.034a3.73 3.73 0 0 0-.782-.068h-1.122c-.884 0-1.7-.045-2.448-.136a14.961 14.961 0 0 1-1.836-.34c.521.113 1.156.204 1.904.272.793.091 1.53.136 2.21.136h.918c.34-.023.702-.034 1.088-.034h1.122a.327.327 0 0 0-.238-.102h-.068a28.262 28.262 0 0 0-.612-4.488c-.318-1.428-.828-2.675-1.53-3.74a7.728 7.728 0 0 0-2.754-2.584c-1.134-.657-2.55-.986-4.25-.986-.476 0-.952.034-1.428.102-.476.068-.964.159-1.462.272.045-.045.068-.091.068-.136a.427.427 0 0 0-.136-.306.542.542 0 0 1-.136-.34c0-.136.136-.261.408-.374.294-.136.906-.261 1.836-.374a.416.416 0 0 1-.102-.204v-.204c-1.224 0-2.176-.023-2.856-.068-.68-.068-1.02-.238-1.02-.51 0-.113.136-.272.408-.476.294-.204.702-.397 1.224-.578a10.448 10.448 0 0 1 1.87-.51 11.958 11.958 0 0 1 2.482-.238c1.745 0 3.241.272 4.488.816 1.246.521 2.289 1.224 3.128 2.108a10.41 10.41 0 0 1 2.074 2.958 19.835 19.835 0 0 1 1.292 3.366c.34 1.111.589 2.199.748 3.264.158 1.043.306 1.949.442 2.72v.408c.022.136.034.295.034.476 0 .657-.125 1.235-.374 1.734A3.137 3.137 0 0 1 511 213c-.408.34-.896.589-1.462.748a5.571 5.571 0 0 1-1.768.272c-.499 0-1.145-.011-1.938-.034a18.212 18.212 0 0 1-2.278-.204 14.048 14.048 0 0 0-1.564-.272 11.886 11.886 0 0 1-1.734-.272 9.723 9.723 0 0 1-1.734-.578 4.622 4.622 0 0 1-1.496-1.122c-.431-.521-.782-1.19-1.054-2.006-.25-.816-.374-1.847-.374-3.094 0-1.179.272-2.119.816-2.822.544-.725 1.19-1.281 1.938-1.666a7.142 7.142 0 0 1 2.346-.782c.793-.136 1.439-.204 1.938-.204.634 0 1.054.045 1.258.136.204.091.306.181.306.272a.387.387 0 0 1-.034.17c-.567 0-1.292.023-2.176.068-.884.045-1.746.193-2.584.442a5.605 5.605 0 0 0-2.108 1.156c-.59.499-.884 1.213-.884 2.142.204-.839.544-1.496 1.02-1.972a4.539 4.539 0 0 1 1.7-1.088 6.487 6.487 0 0 1 1.938-.442c.68-.068 1.292-.102 1.836-.102h1.156c-.091.091-.136.181-.136.272 0 .091.045.17.136.238h1.326c.362.068.623.193.782.374.158.159.238.306.238.442 0 .204-.102.385-.306.544-.204.159-.544.317-1.02.476Zm-5.712 8.228c.634.249 1.28.442 1.938.578.68.136 1.348.227 2.006.272.657.068 1.269.102 1.836.102a9.474 9.474 0 0 1-1.36-.238 99.906 99.906 0 0 1-1.258-.306 6.791 6.791 0 0 0-1.156-.17 28.054 28.054 0 0 1-1.156-.17 8.342 8.342 0 0 1-1.19-.306 5.513 5.513 0 0 1-1.224-.68c.43.385.952.691 1.564.918Zm.34-3.57.204.204c.136.136.317.238.544.306a6.91 6.91 0 0 0-.51-.17c-.25-.091-.374-.227-.374-.408l.136.068Zm.85.51h-.102.102Zm18.145 13.6a208.837 208.837 0 0 0 .136-7.684 39.747 39.747 0 0 0-.136-3.434v3.74c0 1.247-.023 2.482-.068 3.706a39.016 39.016 0 0 1-.238 3.672 5.734 5.734 0 0 1-.306-.646 2.956 2.956 0 0 1-.204-.68c.045-.612.068-1.179.068-1.7.023-.499.034-1.054.034-1.666l.408-.204a15.318 15.318 0 0 1-.136-1.462 29.583 29.583 0 0 1-.034-1.428v-1.53c.023-.476.034-.975.034-1.496 0-.635-.023-1.258-.068-1.87a13.675 13.675 0 0 0-.204-1.904h-.102c.045.952.079 1.893.102 2.822.045.929.068 1.859.068 2.788 0 .408-.011.816-.034 1.224l-.034.884a191.166 191.166 0 0 0-.238-6.392 122.455 122.455 0 0 0-.476-6.834l.136-2.822a8.518 8.518 0 0 0-.782-.034h-.782l-.102-.782c0-.113.079-.215.238-.306.159-.091.476-.136.952-.136h.34v-.408c-.748-.091-1.337-.249-1.768-.476-.408-.227-.612-.465-.612-.714 0-.227.204-.419.612-.578.408-.181.929-.317 1.564-.408a19.3 19.3 0 0 1 2.142-.238 38.544 38.544 0 0 1 2.244-.068c.793 0 1.643.023 2.55.068.929.045 1.859.159 2.788.34.929.181 1.825.465 2.686.85a7.489 7.489 0 0 1 2.38 1.564c.703.657 1.281 1.496 1.734 2.516.476.997.782 2.221.918 3.672 0 1.224-.272 2.233-.816 3.026a6.493 6.493 0 0 1-1.904 1.87 7.938 7.938 0 0 1-2.346 1.02c-.793.204-1.451.34-1.972.408-.521.113-1.122.249-1.802.408-.68.136-1.258.204-1.734.204-.521 0-.827-.057-.918-.17a.684.684 0 0 1-.136-.442 46.33 46.33 0 0 0 3.06-.238c1.02-.136 2.04-.363 3.06-.68-1.02.249-2.04.442-3.06.578a46.33 46.33 0 0 1-3.06.238c0-.136-.011-.272-.034-.408-.023-.159-.091-.238-.204-.238-.227 0-.408.363-.544 1.088a30.564 30.564 0 0 0-.272 2.584c-.045 1.02-.079 2.063-.102 3.128v2.652c0 .317.011.646.034.986.045.363.068.669.068.918 0 .227-.034.419-.102.578-.068.159-.261.238-.578.238v-4.284a73.241 73.241 0 0 0-.102 2.142v2.142h-.612v.272c0 .204.034.351.102.442-.249.431-.533.646-.85.646-.249 0-.442-.068-.578-.204a8.673 8.673 0 0 0-.51-.544l.102-.306Zm3.298-14.178h.476c.793 0 1.7-.045 2.72-.136a16.426 16.426 0 0 0 2.924-.51c.907-.249 1.666-.601 2.278-1.054.635-.453.952-1.043.952-1.768v-.272c0-.227-.023-.476-.068-.748a1.705 1.705 0 0 0-.272-.782c.023.113.079.34.17.68.091.34.136.623.136.85 0 .703-.249 1.281-.748 1.734-.476.431-1.088.782-1.836 1.054a12.19 12.19 0 0 1-2.414.544 23.64 23.64 0 0 1-2.482.136h-.68a6.73 6.73 0 0 1-.68-.034c.317-.249.725-.419 1.224-.51a17.569 17.569 0 0 1 1.632-.272 335.89 335.89 0 0 0 1.666-.204c.544-.068 1.009-.181 1.394-.34l.204.408c.793-.385 1.349-.759 1.666-1.122.34-.385.51-.907.51-1.564 0-1.043-.295-1.961-.884-2.754-.567-.793-1.337-1.326-2.312-1.598l-.102.204c.839.317 1.564.839 2.176 1.564.612.725.918 1.598.918 2.618 0 .544-.125.975-.374 1.292-.227.272-.589.521-1.088.748.408-.181.714-.408.918-.68.249-.317.419-.669.51-1.054 0-.952-.227-1.757-.68-2.414-.453-.657-1.088-1.179-1.904-1.564-.816-.408-1.802-.691-2.958-.85-1.133-.181-2.391-.272-3.774-.272.181.975.283 2.04.306 3.196.045 1.133.125 2.244.238 3.332l.238 2.142Zm-3.434-5.202c.045-.045.091-.238.136-.578.045-.34.079-.703.102-1.088.045-.408.079-.782.102-1.122.045-.363.091-.578.136-.646l-.442-.034-.034 3.468Zm10.37 3.434.17-.068-.17.068Zm20.68 6.698c-.862.295-1.519.453-1.972.476-.454.045-.85.079-1.19.102-1.27 0-2.414-.238-3.434-.714a7.964 7.964 0 0 1-2.618-1.938 9.004 9.004 0 0 1-1.7-2.856 10.694 10.694 0 0 1-.578-3.536c0-.725.068-1.473.204-2.244.136-.793.34-1.564.612-2.312a9.878 9.878 0 0 1 1.054-2.142 8.426 8.426 0 0 1 1.462-1.768 6.72 6.72 0 0 0-1.496 1.7 11.103 11.103 0 0 0-1.088 2.142 11.55 11.55 0 0 0-.646 2.346 13.673 13.673 0 0 0-.204 2.312c0 .952.147 1.972.442 3.06a9.747 9.747 0 0 0 1.496 2.992c.68.907 1.552 1.666 2.618 2.278 1.088.612 2.402.918 3.944.918.725 0 1.484-.102 2.278-.306a5.143 5.143 0 0 1-2.89.85 7.296 7.296 0 0 1-2.448-.408 7.75 7.75 0 0 1-2.108-1.088 9.01 9.01 0 0 1-1.734-1.632 10.805 10.805 0 0 1-1.326-2.04l.306-.272a10.543 10.543 0 0 1-.85-2.312 11.585 11.585 0 0 1-.238-2.346c0-1.156.158-2.267.476-3.332.34-1.065.782-2.074 1.326-3.026l.816-1.122c.136-.249.328-.499.578-.748a9.36 9.36 0 0 1 .884-.714c.317-.249.646-.465.986-.646.362-.204.702-.385 1.02-.544a28.78 28.78 0 0 1 2.448-1.088c.816-.34 1.768-.589 2.856-.748l-.136-.102c-2.086.204-3.854.714-5.304 1.53-1.451.793-2.63 1.768-3.536 2.924a11.299 11.299 0 0 0-1.972 3.808 13.914 13.914 0 0 0-.612 4.012c0 .703.056 1.417.17 2.142.136.703.328 1.405.578 2.108a11.107 11.107 0 0 1-.85-4.318c0-1.496.249-2.981.748-4.454.498-1.473 1.28-2.833 2.346-4.08 1.36-1.247 2.844-2.199 4.454-2.856 1.609-.68 3.162-1.02 4.658-1.02.476 0 .963.079 1.462.238.498.159.952.408 1.36.748.408.317.736.737.986 1.258.272.521.408 1.156.408 1.904 0 .612-.148 1.36-.442 2.244a10.014 10.014 0 0 1-1.326 2.584 8.248 8.248 0 0 1-2.142 2.108c-.862.567-1.859.85-2.992.85h-1.122a23.956 23.956 0 0 1-2.312-.612 15.34 15.34 0 0 0-1.938-.578 5.903 5.903 0 0 0-.17 1.054v.952c0 .657.068 1.303.204 1.938.158.612.396 1.179.714 1.7.317.521.714.963 1.19 1.326.498.34 1.099.555 1.802.646.43.091.804.147 1.122.17.317 0 .578.011.782.034.226 0 .385.034.476.102.113.045.17.147.17.306a3.653 3.653 0 0 1-.714.136 7.092 7.092 0 0 1-.714.034c-.794 0-1.508-.125-2.142-.374a7.879 7.879 0 0 1-1.632-.918 4.5 4.5 0 0 0 1.87 1.122 7.883 7.883 0 0 0 2.142.306c.385 0 .782-.034 1.19-.102a1.343 1.343 0 0 0-.068.238c0 .136.056.227.17.272.09-.023.249-.079.476-.17.226-.113.453-.215.68-.306.249-.113.487-.204.714-.272.226-.091.385-.136.476-.136.113 0 .215.023.306.068.09.023.136.147.136.374s-.08.499-.238.816a3.745 3.745 0 0 1-.714.952Zm-4.692-13.464.748.136c.249.045.476.068.68.068.226 0 .487-.068.782-.204.317-.159.623-.374.918-.646a3.69 3.69 0 0 0 .816-1.02c.249-.408.43-.873.544-1.394l.068-.204c-.318 0-.794.079-1.428.238-.635.159-1.292.374-1.972.646-.68.249-1.315.555-1.904.918-.59.34-.998.714-1.224 1.122.34.068.668.136.986.204.34.045.668.091.986.136Zm-1.564 2.516c.045-.045.068-.113.068-.204a.98.98 0 0 0 .034-.204l-1.598-.578-.17.476 1.666.51Zm-.952 7.718-.476-.544a3.05 3.05 0 0 1-.34-.476c.204.385.476.725.816 1.02Zm19.524 2.992a3.85 3.85 0 0 1-.748.068h-.986c-.589 0-1.009.068-1.258.204-.227.136-.363.204-.408.204l-.136-.612v-.612l-.17-3.196a9.65 9.65 0 0 0-.374-1.972 17.163 17.163 0 0 1-.476-2.142 36.298 36.298 0 0 1-.17-1.36l-.136-1.326a32.79 32.79 0 0 0-.17-1.394 14.076 14.076 0 0 0-.238-1.53v-.408c.023-.136.034-.272.034-.408 0-.703-.057-1.394-.17-2.074a15.115 15.115 0 0 0-.476-2.006c.159-.068.306-.125.442-.17a.847.847 0 0 1 .374-.102c.113 0 .238.136.374.408.136.249.283.782.442 1.598a.916.916 0 0 0 .204-.034.531.531 0 0 1 .204-.068 8.343 8.343 0 0 0-.17-1.224 62.644 62.644 0 0 0-.272-1.292 18.933 18.933 0 0 0-.272-1.088 4.388 4.388 0 0 1-.102-.816v-.17c.023-.068.079-.102.17-.102.113 0 .261.125.442.374s.374.567.578.952c.204.385.397.805.578 1.258.204.431.385.839.544 1.224.612-1.156 1.303-2.029 2.074-2.618.793-.612 1.825-.918 3.094-.918.929 0 1.689.113 2.278.34.589.204 1.043.442 1.36.714.34.249.567.487.68.714l.204.34c0 .136-.068.227-.204.272a6.088 6.088 0 0 0-2.006-1.292 6.25 6.25 0 0 0-2.312-.442c-.771 0-1.349.102-1.734.306-.363.181-.748.408-1.156.68a9.116 9.116 0 0 1 1.19-.646c.385-.159.941-.238 1.666-.238a5.63 5.63 0 0 1 2.278.476c.725.295 1.349.68 1.87 1.156a1.332 1.332 0 0 0-.306.17c-.068.045-.102.125-.102.238.113 0 .238.079.374.238.136.136.261.306.374.51.113.204.204.419.272.646.091.204.136.374.136.51 0 .385-.147.578-.442.578-.227 0-.499-.079-.816-.238-.068-.023-.215-.147-.442-.374a4.823 4.823 0 0 0-.782-.68 6.362 6.362 0 0 0-1.088-.68 2.997 2.997 0 0 0-1.36-.306c-.408 0-.771.091-1.088.272a2.83 2.83 0 0 0-.816.68 5.109 5.109 0 0 0-.68.952l-.442.816c.34-.612.714-1.167 1.122-1.666.453-.589 1.02-.884 1.7-.884.589 0 1.133.136 1.632.408.499.249.907.567 1.224.952a15.344 15.344 0 0 0-1.36-.476 5.123 5.123 0 0 0-1.496-.238c-.249 0-.465.057-.646.17-.181.113-.34.261-.476.442-.113.159-.227.34-.34.544a4.725 4.725 0 0 1-.306.578l-.442.068c-.385.657-.703 1.428-.952 2.312a10.63 10.63 0 0 0-.34 2.72c0 .567.023 1.077.068 1.53.068.453.159.918.272 1.394l.408 1.054-.068-.986c-.045-.771-.091-1.451-.136-2.04a27.478 27.478 0 0 1-.068-2.006c.045-.657.136-1.281.272-1.87.113-.499.283-.963.51-1.394-.272.544-.453 1.167-.544 1.87-.113.771-.17 1.587-.17 2.448 0 .68.034 1.326.102 1.938.068.612.147 1.224.238 1.836.113.612.227 1.247.34 1.904.113.635.204 1.337.272 2.108l.102.646.204 1.938-.85.34Zm.408-15.198-.102.17.102-.17Z" fill="#87362B"/></svg>