<svg width="914" height="400" fill="none" xmlns="http://www.w3.org/2000/svg"><path d="M376.285 187.08c-.816 0-1.536.312-2.16.936-.6.6-.9 1.32-.9 2.16 0 .672.156 1.344.468 2.016.336.648.876 1.392 1.62 2.232l3.636 4.248c1.032 1.2 1.824 2.244 2.376 3.132.576.864.972 1.704 1.188 2.52.24.792.36 1.68.36 2.664 0 1.176-.3 2.244-.9 3.204a6.733 6.733 0 0 1-2.412 2.304c-1.008.576-2.124.864-3.348.864-.888 0-1.608-.084-2.16-.252a8.76 8.76 0 0 1-1.332-.504c-.312-.168-.588-.252-.828-.252s-.468.072-.684.216c-.216.12-.348.264-.396.432h-1.26v-7.632h1.224c.336 1.92.936 3.432 1.8 4.536.864 1.08 1.872 1.62 3.024 1.62 1.008 0 1.8-.336 2.376-1.008.6-.672.9-1.584.9-2.736 0-.936-.228-1.872-.684-2.808-.456-.96-1.188-2.016-2.196-3.168l-3.024-3.492c-1.248-1.464-2.124-2.7-2.628-3.708a7.37 7.37 0 0 1-.756-3.276c0-1.008.3-1.944.9-2.808.6-.864 1.38-1.56 2.34-2.088a6.528 6.528 0 0 1 3.132-.792c.912 0 1.56-.072 1.944-.216a1.55 1.55 0 0 0 .864-.792h1.224l1.584 6.516-1.224.324c-.456-1.2-.876-2.112-1.26-2.736-.384-.624-.792-1.056-1.224-1.296-.408-.24-.936-.36-1.584-.36Zm29.052 9.18c.144-.48.024-.864-.36-1.152-.384-.288-.984-.432-1.8-.432v-1.116h5.904v1.116c-.624 0-1.104.12-1.44.36-.336.24-.6.648-.792 1.224l-5.4 17.244h-.936l-4.284-14.076-4.104 14.076h-.972l-5.616-17.316c-.192-.624-.444-1.032-.756-1.224-.288-.192-.78-.288-1.476-.288v-1.116h8.1v1.116c-1.752 0-2.484.492-2.196 1.476l3.312 10.944 2.952-10.404c.168-.6.048-1.08-.36-1.44-.408-.384-.972-.576-1.692-.576v-1.116h7.524l.036 1.116c-1.776 0-2.52.492-2.232 1.476l3.204 10.872 3.384-10.764Zm5.713 13.824c-.168.48-.06.864.324 1.152.408.288 1.02.432 1.836.432V213h-6.012v-1.332c.648 0 1.14-.12 1.476-.36.336-.24.588-.648.756-1.224l5.4-16.668h1.728l5.616 16.74c.216.624.456 1.032.72 1.224.264.192.768.288 1.512.288V213h-8.28v-1.332c1.776 0 2.508-.492 2.196-1.476l-.756-2.412h-5.76l-.756 2.304Zm1.224-3.672h4.86l-2.376-7.56-2.484 7.56Zm12.345 5.256c.768 0 1.32-.12 1.656-.36.336-.24.504-.636.504-1.188v-13.68c0-.552-.168-.948-.504-1.188-.336-.24-.888-.36-1.656-.36v-1.332h8.496c2.184 0 3.792.516 4.824 1.548 1.056 1.008 1.584 2.568 1.584 4.68 0 2.064-.528 3.6-1.584 4.608-1.032.984-2.64 1.476-4.824 1.476h-.936v-1.332h.936c.792 0 1.428-.324 1.908-.972.48-.648.72-1.5.72-2.556v-2.556c0-1.056-.24-1.896-.72-2.52-.48-.648-1.116-.972-1.908-.972h-2.376v15.156c0 .552.168.948.504 1.188.336.24.888.36 1.656.36V213h-8.28v-1.332Zm22.696 0c.768 0 1.32-.12 1.656-.36.336-.24.504-.636.504-1.188v-21.24c0-.552-.168-.948-.504-1.188-.336-.24-.888-.36-1.656-.36V186h9c4.512 0 6.768 2.58 6.768 7.74 0 1.752-.264 3.168-.792 4.248-.504 1.08-1.392 1.992-2.664 2.736 1.152.744 1.98 1.668 2.484 2.772.504 1.08.756 2.46.756 4.14v.468c0 1.056.24 1.92.72 2.592.48.648 1.116.972 1.908.972h.396V213h-.396c-2.328 0-4.044-.564-5.148-1.692-1.08-1.152-1.62-2.928-1.62-5.328v-1.008c0-1.056-.252-1.92-.756-2.592-.48-.672-1.104-1.008-1.872-1.008h-.864v-1.44h1.08c.816 0 1.464-.324 1.944-.972.504-.648.756-1.5.756-2.556v-5.508c0-1.056-.24-1.896-.72-2.52-.48-.624-1.14-.936-1.98-.936h-2.808v22.68c0 .552.168.948.504 1.188.336.24.888.36 1.656.36V213h-8.352v-1.332Zm18.798 0c.768 0 1.32-.12 1.656-.36.336-.24.504-.636.504-1.188v-13.68c0-.552-.168-.948-.504-1.188-.336-.24-.888-.36-1.656-.36v-1.332h10.656c.624 0 1.068-.048 1.332-.144.264-.12.408-.3.432-.54h1.188l1.476 5.832-1.188.324c-.432-1.152-.852-2.016-1.26-2.592-.384-.6-.888-.996-1.512-1.188-.6-.192-1.428-.288-2.484-.288h-2.556v7.74h2.592c.936 0 1.404-.624 1.404-1.872h1.152v5.472h-1.152c0-1.464-.468-2.196-1.404-2.196h-2.592v7.488h4.284c.864 0 1.572-.036 2.124-.108.552-.096 1.008-.288 1.368-.576.384-.312.72-.792 1.008-1.44.312-.672.648-1.572 1.008-2.7l4.356-13.356h1.728l5.616 16.74c.216.624.456 1.032.72 1.224.264.192.768.288 1.512.288V213h-8.28v-1.332c1.776 0 2.508-.492 2.196-1.476l-.756-2.412h-5.76l-1.944 5.976h-1.224c-.096-.288-.324-.492-.684-.612-.36-.096-.96-.144-1.8-.144h-11.556v-1.332Zm17.676-5.256h4.86l-2.376-7.56-2.484 7.56Zm12.339 5.256c.768 0 1.32-.12 1.656-.36.336-.24.504-.636.504-1.188v-13.68c0-.552-.168-.948-.504-1.188-.336-.24-.888-.36-1.656-.36v-1.332h8.496c2.184 0 3.792.516 4.824 1.548 1.056 1.008 1.584 2.568 1.584 4.68 0 2.064-.528 3.6-1.584 4.608-1.032.984-2.64 1.476-4.824 1.476h-.936v-1.332h.936c.792 0 1.428-.324 1.908-.972.48-.648.72-1.5.72-2.556v-2.556c0-1.056-.24-1.896-.72-2.52-.48-.648-1.116-.972-1.908-.972h-2.376v15.156c0 .552.168.948.504 1.188.336.24.888.36 1.656.36V213h-8.28v-1.332Zm16.058 0c.768 0 1.32-.12 1.656-.36.336-.24.504-.636.504-1.188v-13.68c0-.552-.168-.948-.504-1.188-.336-.24-.888-.36-1.656-.36v-1.332h10.656c.624 0 1.068-.048 1.332-.144.264-.12.408-.3.432-.54h1.188l1.476 5.832-1.188.324c-.432-1.152-.852-2.016-1.26-2.592-.384-.6-.888-.996-1.512-1.188-.6-.192-1.428-.288-2.484-.288h-2.556v7.74h2.592c.936 0 1.404-.624 1.404-1.872h1.152v5.472h-1.152c0-1.464-.468-2.196-1.404-2.196h-2.592v7.488h3.744c1.08 0 1.908-.12 2.484-.36.6-.24 1.032-.696 1.296-1.368.288-.696.504-1.704.648-3.024h1.188v6.912h-1.224c-.096-.288-.324-.492-.684-.612-.36-.096-.96-.144-1.8-.144h-11.736v-1.332Zm16.515 0c.768 0 1.32-.12 1.656-.36.336-.24.504-.636.504-1.188v-13.68c0-.552-.168-.948-.504-1.188-.336-.24-.888-.36-1.656-.36v-1.332h8.496c2.208 0 3.828.504 4.86 1.512 1.032 1.008 1.548 2.58 1.548 4.716 0 1.032-.264 1.932-.792 2.7-.528.744-1.368 1.404-2.52 1.98 2.016.84 3.024 2.34 3.024 4.5 0 .744.144 1.38.432 1.908.312.528.684.792 1.116.792h.216V213h-.324c-1.752 0-3.048-.324-3.888-.972-.816-.648-1.224-1.668-1.224-3.06 0-1.032-.264-1.92-.792-2.664-.528-.768-1.14-1.152-1.836-1.152h-.756v-1.332h.936c.792 0 1.428-.324 1.908-.972.48-.648.72-1.5.72-2.556v-1.836c0-1.056-.24-1.896-.72-2.52-.48-.648-1.116-.972-1.908-.972h-2.376v15.156c0 .552.168.948.504 1.188.336.24.888.36 1.656.36V213h-8.28v-1.332Z" fill="url(#swap-reaper__a)"/><defs><linearGradient id="swap-reaper__a" x1="457" y1="182.5" x2="457" y2="213" gradientUnits="userSpaceOnUse"><stop stop-color="#311313"/><stop offset="1" stop-color="#9E3324"/></linearGradient></defs></svg>